<svg xmlns="http://www.w3.org/2000/svg" width="58" height="58" viewBox="0 0 58 58" fill="none"><path d="M44.2653 38.4712C48.576 34.4074 51.2715 28.6482 51.2715 22.2704C51.2715 17.1942 49.608 12.4131 46.4607 8.44389C43.4078 4.59368 39.1142 1.82644 34.3711 0.651942C33.7645 0.501959 33.1497 0.871936 32.9992 1.47924C32.8489 2.08654 33.2193 2.70075 33.8267 2.85119C42.764 5.06425 49.0059 13.0498 49.0059 22.2704C49.0059 33.3012 40.0317 42.2753 29.001 42.2753C17.9703 42.2753 8.99607 33.3012 8.99607 22.2704C8.99607 13.0498 15.2381 5.06425 24.1755 2.85119C24.7827 2.70075 25.1531 2.08654 25.0028 1.47924C24.8523 0.871936 24.238 0.501392 23.6308 0.651942C18.8877 1.82644 14.5942 4.59368 11.5413 8.44389C8.39403 12.4131 6.73047 17.1942 6.73047 22.2704C6.73047 28.648 9.426 34.4074 13.7366 38.4711L7.80584 49.8138C7.51664 50.3669 7.72935 51.0498 8.28151 51.3408L8.32233 51.3623C8.57557 51.4958 8.86992 51.5284 9.14651 51.4536L17.366 49.2283L20.2299 57.2481C20.3813 57.6718 20.7693 57.9659 21.2183 57.9972C21.2447 57.999 21.2709 57.9999 21.2971 57.9999C21.7164 57.9999 22.1043 57.7673 22.3006 57.392L29.001 44.5775L35.7014 57.392C35.8976 57.7675 36.2857 58 36.7049 57.9999C36.7312 57.9999 36.7575 57.999 36.7837 57.9972C37.2328 57.966 37.6207 57.6718 37.7721 57.2481L40.636 49.2283L48.8555 51.4537C49.1318 51.5287 49.4263 51.4961 49.6797 51.3624L49.7205 51.3409C50.2726 51.0499 50.4854 50.367 50.196 49.8138L44.2653 38.4712ZM21.4927 54.0475L19.1474 47.4803C18.9487 46.9236 18.355 46.6132 17.7846 46.7678L10.9938 48.6064L15.5072 39.9747C18.6381 42.3669 22.4192 43.9482 26.5352 44.4037L21.4927 54.0475ZM40.2174 46.7678C39.647 46.6134 39.0533 46.9236 38.8545 47.4803L36.5092 54.0475L31.4667 44.4037C35.5828 43.9482 39.3637 42.3669 42.4947 39.9747L47.008 48.6064L40.2174 46.7678Z" fill="#28BA7B"/><path d="M29 2.26562C29.6256 2.26562 30.1328 1.75844 30.1328 1.13281C30.1328 0.507177 29.6256 0 29 0C28.3744 0 27.8672 0.507177 27.8672 1.13281C27.8672 1.75844 28.3744 2.26562 29 2.26562Z" fill="#28BA7B"/><path d="M12.3945 22.2706C12.3945 31.4273 19.8441 38.877 29.001 38.877C38.1579 38.877 45.6075 31.4274 45.6075 22.2706C45.6075 13.1137 38.1579 5.66406 29.001 5.66406C19.8441 5.66406 12.3945 13.1137 12.3945 22.2706ZM43.3419 22.2706C43.3419 30.1781 36.9086 36.6113 29.001 36.6113C21.0934 36.6113 14.6602 30.1781 14.6602 22.2706C14.6602 14.3629 21.0934 7.92969 29.001 7.92969C36.9086 7.92969 43.3419 14.3629 43.3419 22.2706Z" fill="#28BA7B"/><path d="M27.9813 16.1746L25.6475 21.004L20.4166 19.8175C20.0076 19.7249 19.5812 19.8654 19.3077 20.183C19.0342 20.5006 18.9583 20.9433 19.1106 21.3337L21.2189 26.7406H21.0716C20.446 26.7406 19.9387 27.2477 19.9387 27.8734C19.9387 28.499 20.446 29.0062 21.0716 29.0062H36.9309C37.5565 29.0062 38.0637 28.499 38.0637 27.8734C38.0637 27.2477 37.5565 26.7406 36.9309 26.7406H36.7837L38.892 21.3337C39.0443 20.9433 38.9685 20.5006 38.695 20.183C38.4215 19.8653 37.995 19.7249 37.586 19.8173L32.3552 21.0039L30.0212 16.1745C29.8322 15.7832 29.4358 15.5345 29.0012 15.5345C28.5668 15.5347 28.1703 15.7833 27.9813 16.1746ZM30.7072 22.8009C30.9367 23.2757 31.4636 23.5293 31.9777 23.4127L36.0059 22.4991L34.3521 26.7407H23.6507L21.9969 22.4991L26.025 23.4127C26.5392 23.5291 27.0661 23.2757 27.2956 22.8009L29.0012 19.2709L30.7072 22.8009Z" fill="#28BA7B"/></svg>