<svg xmlns="http://www.w3.org/2000/svg" width="57" height="58" viewBox="0 0 57 58" fill="none"><g clip-path="url(#clip0_709_957)"><path opacity="0.4" d="M13.961 58C19.3318 58 23.6857 55.778 23.6857 53.0369C23.6857 50.2959 19.3318 48.0739 13.961 48.0739C8.59021 48.0739 4.23633 50.2959 4.23633 53.0369C4.23633 55.778 8.59021 58 13.961 58Z" fill="#28BA7B"/><path opacity="0.4" d="M45.8316 32.1141C50.0857 32.1141 53.5343 30.3278 53.5343 28.1242C53.5343 25.9206 50.0857 24.1343 45.8316 24.1343C41.5775 24.1343 38.1289 25.9206 38.1289 28.1242C38.1289 30.3278 41.5775 32.1141 45.8316 32.1141Z" fill="#28BA7B"/><path d="M36.2157 27.6665C27.7983 25.3732 27.1891 41.5385 39.4277 38.6297C60.1686 33.7005 61.5235 53.4524 41.975 52.7253C36.8386 52.5341 28.9058 52.6507 25.8047 52.7253" stroke="#28BA7B" stroke-width="2" stroke-linecap="round" stroke-dasharray="4 6"/><path fill-rule="evenodd" clip-rule="evenodd" d="M14.1727 53.7181C12.3425 52.7633 2.36015 44.0014 0.308208 33.9475C-1.74374 23.8937 6.85221 17.3221 14.1727 17.3221C20.384 17.3221 28.9799 22.7702 27.8154 33.4981C27.3717 36.8681 25.7634 44.1697 14.1727 53.7181ZM18.4862 28.6107C18.4862 31.083 16.4602 33.0872 13.9609 33.0872C11.4616 33.0872 9.43555 31.083 9.43555 28.6107C9.43555 26.1384 11.4616 24.1342 13.9609 24.1342C16.4602 24.1342 18.4862 26.1384 18.4862 28.6107Z" fill="#28BA7B"/><path fill-rule="evenodd" clip-rule="evenodd" d="M46.0959 28.8054C44.6445 28.0496 36.7273 21.1151 35.0999 13.158C33.4725 5.20097 40.29 -5.78936e-06 46.0959 0C51.0222 4.91217e-06 57.8396 4.31191 56.9161 12.8024C56.5641 15.4696 55.2885 21.2484 46.0959 28.8054ZM49.1055 8.66112C49.1055 10.4347 47.683 11.8725 45.9282 11.8725C44.1733 11.8725 42.7508 10.4347 42.7508 8.66112C42.7508 6.8875 44.1733 5.44971 45.9282 5.44971C47.683 5.44971 49.1055 6.8875 49.1055 8.66112Z" fill="#28BA7B"/></g><defs><clipPath id="clip0_709_957"><rect width="57" height="58" fill="white"/></clipPath></defs></svg>