<svg xmlns="http://www.w3.org/2000/svg" width="92" height="58" viewBox="0 0 92 58" fill="none"><path d="M91.9971 41.523C91.9737 41.2282 87.0263 44.1977 78.7018 44.7668C70.3918 45.6308 58.6842 44.0945 45.6842 41.6381C32.6842 39.1816 21.1228 39.5384 12.9825 42.2956C4.79532 44.758 0.0233918 49.6207 0 49.3228C0.0233918 49.6177 4.97076 46.6482 13.2982 46.0791C21.6082 45.215 33.3187 46.7514 46.3158 49.2078C59.3129 51.6642 70.8772 51.3104 79.0175 48.5532C87.2047 46.0909 91.9737 41.2282 92 41.526" fill="#54A15D"/><path d="M69.5343 52.8113C69.5343 52.599 65.8589 54.445 59.8852 54.3919C53.9174 54.5512 45.663 52.8143 36.5372 50.349C27.4115 47.8838 19.1688 47.5034 13.2127 49.0191C7.26238 50.3225 3.60156 53.525 3.60156 53.3127C3.60156 53.525 7.27993 51.679 13.2507 51.732C19.2156 51.5728 27.4729 53.3097 36.5957 55.775C45.7185 58.2402 53.9641 58.6177 59.9203 57.102C65.8793 55.7986 69.5431 52.5961 69.546 52.8084" fill="#54A15D"/><path d="M82.318 39.1699C80.7215 36.4215 78.1279 31.8803 76.5285 29.1054C74.9291 26.3305 72.3648 26.3334 70.7683 29.1054C70.087 30.3203 69.1952 31.8803 68.3063 33.4432L50.78 2.87515C48.6075 -0.958384 45.0168 -0.958384 42.7946 2.87515C42.7946 2.87515 33.9905 18.2771 32.3384 21.1582C31.9963 20.5684 29.1221 15.5317 29.1221 15.5317C26.9145 11.6982 23.3267 11.6982 21.1308 15.5317L8.68931 37.2472L5.11914 43.5018C7.42177 42.2136 9.85354 41.1757 12.3735 40.4055H12.3501L12.4115 40.3848H12.3735C21.046 37.4566 33.0022 37.203 46.0373 39.6653C61.1279 42.5198 71.4408 43.4988 78.4934 42.7705H78.5636C80.3671 42.6483 82.1593 42.3941 83.9262 42.0096L82.318 39.1699Z" fill="#54A15D"/></svg>